<svg aria-hidden="true" style="position: absolute; width: 0; height: 0; overflow: hidden;" version="1.1" xmlns="http://www.w3.org/2000/svg" xmlns:xlink="http://www.w3.org/1999/xlink">
<defs>
<symbol id="icon-antenna1f" viewBox="0 0 32 32">
<path d="M30.75 22.1l-8.4-8.5 0.9-4.6 0.8 0.1c0.004 0 0.010 0 0.015 0 1.187 0 2.15-0.963 2.15-2.15s-0.963-2.15-2.15-2.15c-1.187 0-2.15 0.963-2.15 2.15 0 0.269 0.050 0.527 0.14 0.765l-0.005-0.015-5 0.6-8.050-8.15c-0.089-0.091-0.213-0.148-0.35-0.15h-0c-0.012-0.001-0.027-0.002-0.041-0.002-0.141 0-0.268 0.058-0.359 0.152l-1.5 1.5c-0.104 0.092-0.169 0.226-0.169 0.375s0.065 0.283 0.169 0.375l0.001 0 0.75 0.85c-1.122 2.047-1.781 4.485-1.781 7.077 0 4.179 1.715 7.958 4.479 10.671l0.002 0.002-0.050 0.5v6.25h-6.4c-1.5 0-2.7 1.2-2.7 2.65v1.050c0 0.3 0.25 0.55 0.55 0.55h24.5c0.35 0 0.55-0.25 0.55-0.5v-1.1c0-1.5-1.15-2.65-2.65-2.65h-6.4v-2.75c0.895 0.19 1.924 0.299 2.978 0.299 2.609 0 5.063-0.666 7.2-1.838l-0.078 0.039 0.8 0.85c0.1 0.1 0.25 0.15 0.4 0.15s0.25 0 0.35-0.15l1.5-1.5c0.25-0.2 0.25-0.5 0-0.75zM23.25 6.25c0.189-0.184 0.448-0.298 0.733-0.298 0.58 0 1.050 0.47 1.050 1.050 0 0.556-0.432 1.011-0.979 1.048l-0.003 0c-0.005 0-0.010 0-0.015 0-0.58 0-1.050-0.47-1.050-1.050 0-0.294 0.121-0.559 0.315-0.75l0-0zM22 9.75l-0.5 2.95-1.25-1.2 1.75-1.75zM21.4 8.85l-1.9 1.9-1.5-1.5 3.4-0.4zM24 28.8c0.9 0 1.6 0.7 1.6 1.6v0.5h-23.5v-0.5c0-0.9 0.75-1.6 1.65-1.6h20.25zM16.5 26.65v1.1h-5.25v-1.1h5.35zM11.2 25.6v-4.050c0-1.3 1.2-2.35 2.65-2.35 1.5 0 2.7 1.050 2.7 2.35v4.050h-5.35zM17.6 23.9v-2.35c0-1.9-1.65-3.4-3.75-3.4-0.015-0-0.033-0-0.050-0-1.338 0-2.514 0.691-3.191 1.736l-0.009 0.015c-2.363-2.48-3.817-5.844-3.817-9.548 0-2.3 0.561-4.47 1.553-6.379l-0.036 0.077 18.6 18.7c-2.85 1.45-6.15 1.85-9.3 1.15zM28.9 23.2l-0.75-0.7-19.55-19.7-0.75-0.8 0.75-0.75 7.95 8 13.1 13.15-0.75 0.75z"></path>
<path d="M13.9 20.25c-0.884 0-1.6 0.716-1.6 1.6s0.716 1.6 1.6 1.6v0c0.884 0 1.6-0.716 1.6-1.6s-0.716-1.6-1.6-1.6v0zM14.25 22.25c-0.078 0.053-0.175 0.085-0.279 0.085-0.276 0-0.5-0.224-0.5-0.5 0-0.233 0.16-0.429 0.376-0.484l0.003-0.001c0.036-0.009 0.078-0.015 0.121-0.015 0.276 0 0.5 0.224 0.5 0.5 0 0.172-0.087 0.324-0.219 0.414l-0.002 0.001z"></path>
</symbol>
<symbol id="icon-astronaut1f" viewBox="0 0 32 32">
<path d="M32 4.5c-0.066-0.205-0.254-0.351-0.477-0.351-0.008 0-0.016 0-0.024 0.001l0.001-0-1.85-0.25-0.85-1.75c-0.2-0.35-0.8-0.35-1 0l-0.8 1.75-1.9 0.25c-0.276 0-0.5 0.224-0.5 0.5 0 0.163 0.078 0.308 0.199 0.399l0.001 0.001 1.4 1.35-0.35 1.9c-0.062 0.083-0.1 0.187-0.1 0.3 0 0.276 0.224 0.5 0.5 0.5 0.163 0 0.308-0.078 0.399-0.199l0.001-0.001 1.7-0.9 1.7 0.9c0.092 0.122 0.237 0.2 0.4 0.2 0.276 0 0.5-0.224 0.5-0.5 0-0.113-0.038-0.217-0.101-0.301l0.001 0.001-0.35-1.9 1.4-1.35c0.15-0.1 0.2-0.35 0.1-0.5zM29.5 5.85c-0.102 0.092-0.167 0.225-0.167 0.373 0 0.045 0.006 0.089 0.017 0.131l-0.001-0.003 0.2 1.1-1-0.5c-0.072-0.042-0.158-0.067-0.25-0.067s-0.178 0.025-0.252 0.068l0.002-0.001-1 0.5 0.2-1.15c0-0.15 0-0.35-0.15-0.45l-0.8-0.8 1.1-0.15c0.15 0 0.3-0.15 0.4-0.3l0.5-1 0.5 1c0.1 0.15 0.25 0.25 0.4 0.3l1.1 0.15-0.8 0.8zM26.15 20.5h-1.15v1.1h1.1v-1.1zM26.15 22.65h-1.15v1.050h1.1v-1zM27.2 21.6h-1.050v1.050h1.050v-1.050z"></path>
<path d="M25.050 21.6h-1.050v1.050h1.050v-1.050zM22.4 26.4h-1.050v1.050h1.050v-1.050zM22.4 28.5h-1.050v1.1h1.050v-1.1zM23.5 27.5h-1.1v1h1.050v-1zM21.35 27.5h-1.1v1h1.1v-1zM16 24.25h-1.050v1.050h1.050v-1zM16 26.4h-1.050v1.050h1.050v-1.050zM17.050 25.3h-1.050v1.1h1.050v-1.1z"></path>
<path d="M14.95 25.3h-1.1v1.1h1.15v-1.1zM5.85 6.1h-1.050v1.1h1.050v-1.1zM5.85 8.25h-1.050v1.050h1.050v-1zM6.95 7.2h-1.1v1.050h1.15v-1.050zM4.8 7.2h-1.050v1.050h1.050v-1.050z"></path>
<path d="M24.7 14.15c-0.27-0.369-0.675-0.625-1.14-0.699l-0.010-0.001c-0.5-0.050-1 0.050-1.35 0.35l-1.25 1-1.9 1.4-1.35-0.55c2.392-1.133 4.016-3.527 4.016-6.3 0-3.809-3.064-6.902-6.862-6.949l-0.004-0c-3.826 0.052-6.908 3.166-6.908 6.999 0 1.371 0.394 2.65 1.075 3.729l-0.017-0.029h-2.8c-0.023-0.004-0.049-0.006-0.075-0.006s-0.052 0.002-0.078 0.006l0.003-0h-0.050l-3.25 1.6-1.9 0.9-0.050 0.050c-0.409 0.333-0.668 0.836-0.668 1.399 0 0.994 0.806 1.8 1.8 1.8 0.26 0 0.506-0.055 0.729-0.154l-0.011 0.005 1.35-0.7 2.3-1.15h1.35l-5.45 5.35-1.35 1.35c-0.304 0.299-0.492 0.715-0.492 1.175s0.188 0.876 0.491 1.175l0 0c0.299 0.304 0.715 0.492 1.175 0.492s0.876-0.188 1.175-0.491l0-0 1.35-1.3 1.7-1.3 0.9 0.9-3.1 3.1c-0.304 0.299-0.492 0.715-0.492 1.175s0.188 0.876 0.491 1.175l0 0c0.302 0.319 0.728 0.518 1.2 0.518s0.898-0.199 1.199-0.517l0.001-0.001 1.3-1.35 3.15-3.15 5.25-5.65 3.5 0.5c0.009 0.001 0.020 0.001 0.030 0.001 0.080 0 0.156-0.019 0.223-0.052l-0.003 0.001 0.1-0.050 3.2-2.15h0.1l1.2-1.25c0.336-0.327 0.545-0.784 0.545-1.29 0-0.398-0.129-0.767-0.349-1.065l0.003 0.005zM2.15 17.75c-0.2 0.1-0.4 0.15-0.6 0.050-0.294-0.087-0.505-0.355-0.505-0.672 0-0.239 0.12-0.45 0.302-0.576l0.002-0.002 1.3-0.55 0.35 0.9 0.1 0.4-1 0.5zM5.65 15.95l-1.55 0.8-0.3-0.75-0.15-0.5 2-1v1.45zM20.75 9.3c0 0.95-0.25 1.8-0.6 2.6l-4.2-1.9c0-0.6-0.35-1.1-0.8-1.4l1.5-4.85c2.35 0.75 4.1 3 4.1 5.55zM8.95 9.3c0.030-3.236 2.66-5.848 5.9-5.848 0.264 0 0.525 0.017 0.78 0.051l-0.030-0.003-1.5 4.75c-1 0-1.9 0.85-1.9 1.85-0.003 0.036-0.004 0.079-0.004 0.121 0 1.022 0.828 1.85 1.85 1.85 0.72 0 1.343-0.411 1.649-1.011l0.005-0.010 3.85 1.75c-1.089 1.424-2.788 2.334-4.7 2.334-3.235 0-5.862-2.604-5.9-5.83l-0-0.004zM14.9 10.1c0 0.5-0.35 0.8-0.8 0.8-0.5 0-0.8-0.35-0.8-0.8 0-0.4 0.35-0.8 0.8-0.8s0.8 0.4 0.8 0.8zM2.45 25.1c-0.2 0.3-0.6 0.3-0.85 0-0.095-0.106-0.153-0.246-0.153-0.4s0.058-0.294 0.153-0.401l-0 0.001 1-1 0.8 0.9-0.9 0.95zM5.7 28.9c-0.25 0.2-0.65 0.2-0.9 0-0.109-0.109-0.176-0.259-0.176-0.425s0.067-0.316 0.176-0.425l1-1 0.4 0.45 0.45 0.4-1 1zM9.2 25.4l-1.8 1.75-0.4-0.4-0.5-0.45 1.8-1.75 0.1-0.1v-0.050l0.050-0.15v-0.25c-0.025-0.058-0.059-0.108-0.1-0.15l-1.65-1.65h-0.050l-0.1-0.1h-0.5v0.050l-1.85 1.35-0.9-0.9 2.4-2.4 4.35 4.3-0.95 0.9zM16 18.4h-0.050c-0.022-0.003-0.046-0.005-0.072-0.005-0.083 0-0.162 0.020-0.231 0.056l0.003-0.001-0.1 0.1-4.75 5.15-4.3-4.2 2.8-2.8c0.195-0.073 0.331-0.258 0.331-0.475 0-0.28-0.227-0.506-0.506-0.506-0.063 0-0.123 0.011-0.178 0.032l0.004-0.001h-2.25v-1.55h3.15c1.265 1.305 3.034 2.115 4.992 2.115 0.445 0 0.88-0.042 1.301-0.122l-0.043 0.007 0.15 0.050 2.4 1 0.15 0.75 0.2 0.85-3-0.4zM20 18.55l-0.3-1.5 1.5-1.1 0.35 0.5 0.55 0.75-2.1 1.3zM23.75 15.75l-0.75 0.75-1-1.2 0.85-0.65c0.15-0.1 0.35-0.15 0.5-0.15 0.373 0.018 0.668 0.324 0.668 0.699 0 0.223-0.104 0.421-0.266 0.55l-0.001 0.001z"></path>
<path d="M13.6 18.5l-2.15-2.1c-0.092-0.104-0.226-0.169-0.375-0.169s-0.283 0.065-0.375 0.169l-0 0.001-2.15 2.15c-0.104 0.092-0.169 0.226-0.169 0.375s0.065 0.283 0.169 0.375l0.001 0 2.15 2.15c0.092 0.104 0.226 0.169 0.375 0.169s0.283-0.065 0.375-0.169l0-0.001 2.15-2.15c0.104-0.092 0.169-0.226 0.169-0.375s-0.065-0.283-0.169-0.375l-0.001-0zM11.1 20.3l-1.4-1.4 1.4-1.35 1.35 1.35-1.35 1.4zM17.15 5.050l-0.25 1.050c0.1 0 1.75 0.5 1.75 2.15h1.050c0-2-1.65-3-2.5-3.2zM19.7 9.3h-1.050v1.1h1.050v-1.1z"></path>
</symbol>
<symbol id="icon-clock1f" viewBox="0 0 32 32">
<path d="M31.3 15.3c0-0.007 0-0.015 0-0.023 0-8.45-6.85-15.3-15.3-15.3s-15.3 6.85-15.3 15.3c0 6.844 4.494 12.638 10.692 14.594l0.108 0.029c0.15 0 0.25 0 0.35-0.1 0.15-0.050 0.25-0.2 0.3-0.35l3.85-12.25c1.049-0.001 1.899-0.851 1.899-1.9s-0.851-1.9-1.9-1.9c-0.309 0-0.601 0.074-0.859 0.205l0.011-0.005-5.1-5.15c-0.1-0.067-0.224-0.106-0.356-0.106-0.359 0-0.65 0.291-0.65 0.65 0 0.133 0.040 0.256 0.108 0.359l-0.002-0.002 5.1 5.15c-0.113 0.236-0.179 0.512-0.179 0.804 0 0.606 0.283 1.145 0.725 1.493l0.004 0.003-3.7 11.65c-5.375-2.037-9.128-7.142-9.128-13.125 0-7.732 6.268-14 14-14s14 6.268 14 14c0 5.657-3.356 10.531-8.185 12.739l-0.087 0.036-0.4-1.85c-0.070-0.29-0.326-0.502-0.633-0.502-0.159 0-0.305 0.057-0.418 0.152l0.001-0.001-3.85 3.4c-0.129 0.119-0.21 0.289-0.21 0.478 0 0.291 0.191 0.538 0.455 0.62l0.005 0.001 4.85 1.6c0.046 0.012 0.099 0.018 0.154 0.018 0.359 0 0.65-0.291 0.65-0.65 0-0.024-0.001-0.048-0.004-0.071l0 0.003-0.4-1.85c5.539-2.368 9.35-7.77 9.35-14.062 0-0.013-0-0.026-0-0.040v0.002zM16 14.65c0.359 0 0.65 0.291 0.65 0.65s-0.291 0.65-0.65 0.65v0c-0.359 0-0.65-0.291-0.65-0.65s0.291-0.65 0.65-0.65v0zM18.1 29.55l2.2-2 0.6 2.85-2.8-0.85z"></path>
<path d="M15.35 3.2v1.25c0 0.359 0.291 0.65 0.65 0.65s0.65-0.291 0.65-0.65v-1.25c0-0.359-0.291-0.65-0.65-0.65s-0.65 0.291-0.65 0.65v0zM3.9 14.65c-0.359 0-0.65 0.291-0.65 0.65s0.291 0.65 0.65 0.65v0h1.25c0.359 0 0.65-0.291 0.65-0.65s-0.291-0.65-0.65-0.65v0h-1.25zM28.1 15.95c0.359 0 0.65-0.291 0.65-0.65s-0.291-0.65-0.65-0.65v0h-1.25c-0.359 0-0.65 0.291-0.65 0.65s0.291 0.65 0.65 0.65v0h1.25z"></path>
</symbol>
<symbol id="icon-diagram1f" viewBox="0 0 32 32">
<path d="M14.95 15h1v4.75h-1v-4.75zM19.2 17.1h1.050v2.65h-1.050v-2.65zM10.65 18.7h1.1v1.050h-1.1v-1.050zM7.5 18.15h1v1.6h-1v-1.6z"></path>
<path d="M1.6 28.3h25.6c0.85 0 1.6-0.75 1.6-1.6v-2.2c0-0.85-0.75-1.6-1.6-1.6h-0.5v-13.25l3-2.85c0.202 0.099 0.441 0.158 0.692 0.158 0.884 0 1.6-0.716 1.6-1.6s-0.716-1.6-1.6-1.6c-0.884 0-1.6 0.716-1.6 1.6 0 0.252 0.058 0.49 0.162 0.702l-0.004-0.009-2.3 2.15v-1.25c0-0.85-0.7-1.6-1.6-1.6h-21.3c-0 0-0.001 0-0.001 0-0.884 0-1.6 0.716-1.6 1.6 0 0.018 0 0.035 0.001 0.053l-0-0.003v16h-0.55c-0 0-0 0-0.001 0-0.866 0-1.571 0.688-1.599 1.547l-0 0.003v2.15c0 0.85 0.7 1.6 1.6 1.6zM30.4 4.8c0.304 0 0.55 0.246 0.55 0.55s-0.246 0.55-0.55 0.55v0c-0.29 0-0.525-0.235-0.525-0.525s0.235-0.525 0.525-0.525v0zM3.2 7c0-0.3 0.25-0.5 0.5-0.5h21.35c0.3 0 0.5 0.2 0.5 0.5v2.25l-1 1v-2.15c0-0.3-0.25-0.55-0.55-0.55h-19.2c-0.276 0-0.5 0.224-0.5 0.5v0 13.35c0 0.3 0.2 0.5 0.5 0.5h19.2c0.3 0 0.5-0.2 0.5-0.5v-9.7l1.1-1v12.25h-22.4v-15.95zM8 13.9c-0.004-0-0.008-0-0.012-0-0.884 0-1.6 0.716-1.6 1.6s0.716 1.6 1.6 1.6c0.432 0 0.825-0.172 1.113-0.45l-0 0 1.85 0.95c0.2 0.1 0.5 0 0.65-0.15l3.9-4.45 3.85 2.9c0.2 0.2 0.5 0.15 0.7 0l3.35-3.2v8.15h-18.050v-12.35h18.1v2.7l-3.75 3.55-3.9-2.95c-0.088-0.078-0.204-0.126-0.332-0.126-0.174 0-0.328 0.089-0.417 0.224l-0.001 0.002-4 4.5-1.5-0.75v-0.15c0-0.9-0.65-1.6-1.55-1.6zM8.5 15.5c0 0.276-0.224 0.5-0.5 0.5s-0.5-0.224-0.5-0.5v0c0-0.276 0.224-0.5 0.5-0.5s0.5 0.224 0.5 0.5v0zM11.75 24h5.25v0.55c0 0.3-0.25 0.5-0.5 0.5h-4.3c-0.276 0-0.5-0.224-0.5-0.5v0-0.5zM1 24.6c0-0.3 0.25-0.5 0.55-0.5h9.050v0.5c0 0.9 0.75 1.6 1.6 1.6h4.3c0.9 0 1.6-0.7 1.6-1.6v-0.5h9.1c0.3 0 0.5 0.2 0.5 0.5v2.15c0 0.3-0.2 0.5-0.5 0.5h-25.6c-0.276 0-0.5-0.224-0.5-0.5v0-2.25z"></path>
</symbol>
<symbol id="icon-facebook1f" viewBox="0 0 32 32">
<path d="M21.4 5.4h2.6v-5.4h-4c-4.2 0-7.2 2.6-7.2 7.6v4.4h-4.6v5.6h4.6v14.4h5.8v-14.4h4.4l1-5.6h-5.4v-4c0-1.6 0.4-2.6 2.8-2.6z"></path>
</symbol>
<symbol id="icon-instagram2fe" viewBox="0 0 32 32">
<path d="M31.96 9.4c-0.027-1.401-0.296-2.73-0.767-3.96l0.027 0.080c-0.421-1.112-1.047-2.059-1.839-2.839l-0.001-0.001c-0.8-0.8-1.78-1.44-2.84-1.84-1-0.4-2.18-0.66-3.88-0.74-1.479-0.072-3.211-0.112-4.954-0.112-0.579 0-1.157 0.005-1.734 0.013l0.087-0.001c-4.34 0-4.88 0-6.6 0.1-1.7 0.060-2.86 0.34-3.86 0.74-1.112 0.421-2.059 1.047-2.839 1.839l-0.001 0.001c-0.8 0.8-1.44 1.78-1.84 2.84-0.4 1-0.66 2.2-0.74 3.88-0.082 1.578-0.128 3.426-0.128 5.284 0 0.463 0.003 0.925 0.009 1.386l-0.001-0.070c0 4.34 0 4.9 0.080 6.6s0.36 2.86 0.76 3.88c0.4 1.080 1.040 2.040 1.84 2.84s1.78 1.44 2.84 1.84c1 0.4 2.18 0.68 3.88 0.74 1.7 0.080 2.24 0.1 6.6 0.1 4.34 0 4.88 0 6.6-0.1 1.401-0.027 2.73-0.296 3.96-0.767l-0.080 0.027c2.155-0.852 3.828-2.525 4.661-4.625l0.019-0.055c0.4-1 0.66-2.2 0.74-3.88 0.080-1.7 0.080-2.26 0.080-6.6s0-4.88-0.080-6.6zM29.080 22.48c-0.060 1.56-0.32 2.4-0.54 2.96-0.54 1.4-1.64 2.5-3.040 3.040-0.56 0.22-1.4 0.48-2.98 0.56-1.68 0.060-2.2 0.080-6.46 0.080s-4.78 0-6.46-0.080c-1.067-0.016-2.082-0.22-3.020-0.58l0.060 0.020c-0.722-0.27-1.337-0.679-1.839-1.199l-0.001-0.001c-0.519-0.504-0.928-1.119-1.189-1.806l-0.011-0.034c-0.333-0.879-0.53-1.895-0.54-2.956l-0-0.004c-0.070-1.484-0.11-3.223-0.11-4.972 0-0.523 0.004-1.046 0.011-1.567l-0.001 0.079c0-4.28 0-4.8 0.1-6.46 0.060-1.58 0.32-2.4 0.54-2.98 0.26-0.7 0.66-1.32 1.2-1.84 0.52-0.52 1.14-0.94 1.84-1.2 0.56-0.2 1.4-0.48 2.96-0.54 1.7-0.080 2.2-0.1 6.48-0.1 4.26 0 4.78 0.020 6.46 0.1 1.56 0.060 2.4 0.34 2.96 0.56 0.7 0.24 1.34 0.66 1.84 1.2 0.54 0.5 0.94 1.12 1.2 1.82 0.2 0.56 0.48 1.4 0.54 2.98 0.080 1.68 0.1 2.2 0.1 6.46s0 4.76-0.1 6.46z"></path>
<path d="M16.060 7.8c-0.121-0.006-0.263-0.010-0.405-0.010-4.54 0-8.22 3.68-8.22 8.22s3.68 8.22 8.22 8.22c0.143 0 0.284-0.004 0.425-0.011l-0.020 0.001c4.54 0 8.22-3.68 8.22-8.22s-3.68-8.22-8.22-8.22v0zM16.060 21.34c-2.949 0-5.34-2.391-5.34-5.34s2.391-5.34 5.34-5.34v0c2.949 0 5.34 2.391 5.34 5.34s-2.391 5.34-5.34 5.34v0zM26.52 7.46c0 1.060-0.86 1.92-1.92 1.92s-1.92-0.86-1.92-1.92v0c0-1.060 0.86-1.92 1.92-1.92s1.92 0.86 1.92 1.92v0z"></path>
</symbol>
<symbol id="icon-linkedin1f" viewBox="0 0 32 32">
<path d="M32 32v-11.8c0-5.6-1.2-10-8-10-3.2 0-5.4 1.6-6.2 3.4v-3h-6.6v21.4h6.8v-10.6c0-2.8 0.4-5.4 4-5.4 3.4 0 3.4 3.2 3.4 5.6v10.4h6.6zM0.6 10.6h6.6v21.4h-6.6v-21.4zM4 0c-2.4 0-4 1.8-4 4 0 2 1.8 3.8 4 3.8 2 0 3.6-2 3.6-4s-1.6-3.8-3.6-3.8z"></path>
</symbol>
<symbol id="icon-twitter1f" viewBox="0 0 32 32">
<path d="M32 6c-1.2 0.6-2.4 1-3.8 1.2 1.4-0.8 2.4-2 3-3.8-1.4 0.8-2.8 1.4-4.2 1.6-1.203-1.248-2.888-2.023-4.755-2.023-3.645 0-6.6 2.955-6.6 6.6 0 0.504 0.057 0.995 0.164 1.467l-0.008-0.044c-5.563-0.181-10.485-2.777-13.775-6.768l-0.025-0.032c-0.568 0.954-0.903 2.104-0.903 3.333 0 2.265 1.141 4.264 2.88 5.453l0.023 0.015c-1 0-2-0.4-3-0.8 0 3.2 2.4 6 5.4 6.4-0.451 0.11-0.968 0.173-1.5 0.173s-1.049-0.063-1.545-0.182l0.045 0.009c0.774 2.684 3.139 4.642 5.983 4.799l0.017 0.001c-2.188 1.671-4.961 2.678-7.97 2.678-0.504 0-1.001-0.028-1.49-0.083l0.060 0.005c2.881 1.922 6.422 3.066 10.231 3.066 10.273 0 18.6-8.328 18.6-18.6 0-0.375-0.011-0.748-0.033-1.117l0.002 0.051c1.2-0.8 2.4-2 3.2-3.4z"></path>
</symbol>
</defs>
</svg>
