<svg aria-hidden="true" style="position: absolute; width: 0; height: 0; overflow: hidden;" version="1.1" xmlns="http://www.w3.org/2000/svg" xmlns:xlink="http://www.w3.org/1999/xlink">
<defs>
<symbol id="icon-Propertyclick_3" viewBox="0 0 32 32">
<path fill="#404bbf" style="fill: var(--color1, #404bbf)" d="M4 1h24c1.657 0 3 1.343 3 3v24c0 1.657-1.343 3-3 3h-24c-1.657 0-3-1.343-3-3v-24c0-1.657 1.343-3 3-3z"></path>
<path fill="#f4f4fd" style="fill: var(--color2, #f4f4fd)" d="M22.8 8.6c0.337-0.266 0.767-0.427 1.235-0.427 0.973 0 1.783 0.694 1.963 1.614l0.002 0.013c0 0.4 0 1-0.4 1.4l-10 12.2c-0.347 0.298-0.802 0.48-1.3 0.48s-0.953-0.182-1.303-0.482l0.003 0.002-6.4-6.4c-0.743-0.303-1.257-1.020-1.257-1.857 0-1.105 0.895-2 2-2 0.837 0 1.554 0.514 1.852 1.243l0.005 0.013 5.2 5 8.4-10.8z"></path>
<path fill="none" stroke="#404bbf" style="stroke: var(--color1, #404bbf)" stroke-linejoin="miter" stroke-linecap="butt" stroke-miterlimit="4" stroke-width="2" d="M4 1h24c1.657 0 3 1.343 3 3v24c0 1.657-1.343 3-3 3h-24c-1.657 0-3-1.343-3-3v-24c0-1.657 1.343-3 3-3z"></path>
</symbol>
<symbol id="icon-Propertyclick_31" viewBox="0 0 32 32">
<path d="M4 1h24c1.657 0 3 1.343 3 3v24c0 1.657-1.343 3-3 3h-24c-1.657 0-3-1.343-3-3v-24c0-1.657 1.343-3 3-3z"></path>
<path d="M22.8 8.6c0.337-0.266 0.767-0.427 1.235-0.427 0.973 0 1.783 0.694 1.963 1.614l0.002 0.013c0 0.4 0 1-0.4 1.4l-10 12.2c-0.347 0.298-0.802 0.48-1.3 0.48s-0.953-0.182-1.303-0.482l0.003 0.002-6.4-6.4c-0.743-0.303-1.257-1.020-1.257-1.857 0-1.105 0.895-2 2-2 0.837 0 1.554 0.514 1.852 1.243l0.005 0.013 5.2 5 8.4-10.8z"></path>
<path stroke-linejoin="miter" stroke-linecap="butt" stroke-miterlimit="4" stroke-width="2" d="M4 1h24c1.657 0 3 1.343 3 3v24c0 1.657-1.343 3-3 3h-24c-1.657 0-3-1.343-3-3v-24c0-1.657 1.343-3 3-3z"></path>
</symbol>
<symbol id="icon-close-black_3" viewBox="0 0 32 32">
<path d="M32 3.2l-3.2-3.2-12.8 12.8-12.8-12.8-3.2 3.2 12.8 12.8-12.8 12.8 3.2 3.2 12.8-12.8 12.8 12.8 3.2-3.2-12.8-12.8 12.8-12.8z"></path>
</symbol>
<symbol id="icon-close_3" viewBox="0 0 32 32">
<path d="M32 16c0 8.837-7.163 16-16 16s-16-7.163-16-16c0-8.837 7.163-16 16-16s16 7.163 16 16z"></path>
<path stroke-linejoin="miter" stroke-linecap="butt" stroke-miterlimit="4" stroke-width="1.3333" d="M31.333 16c0 8.468-6.865 15.333-15.333 15.333s-15.333-6.865-15.333-15.333c0-8.468 6.865-15.333 15.333-15.333s15.333 6.865 15.333 15.333z"></path>
<path d="M21.333 11.733l-1.067-1.067-4.267 4.267-4.267-4.267-1.067 1.067 4.267 4.267-4.267 4.267 1.067 1.067 4.267-4.267 4.267 4.267 1.067-1.067-4.267-4.267 4.267-4.267z"></path>
</symbol>
<symbol id="icon-email-black_3" viewBox="0 0 24 32">
<path d="M20 8h-16c-1.107 0-2 0.893-2 2v12c0 1.093 0.893 2 2 2h16c1.093 0 2-0.907 2-2v-12c0-1.107-0.907-2-2-2zM19.6 12.253l-7.067 4.413c-0.152 0.095-0.336 0.152-0.533 0.152s-0.382-0.056-0.538-0.154l0.004 0.002-7.067-4.4c-0.273-0.146-0.455-0.429-0.455-0.755 0-0.471 0.382-0.853 0.853-0.853 0.192 0 0.368 0.063 0.511 0.17l-0.002-0.002 6.693 4.173 6.707-4.187c0.145-0.116 0.33-0.187 0.533-0.187 0.471 0 0.853 0.382 0.853 0.853 0 0.34-0.199 0.634-0.488 0.771l-0.005 0.002z"></path>
</symbol>
<symbol id="icon-Frame_3" viewBox="0 0 32 32">
<path d="M32 2.667l-32 15 10.227 3.16 15.773-12.32-12 13.48v7.347l5.733-5.573 7.267 2.24 5-23.333z"></path>
</symbol>
<symbol id="icon-person-black_3" viewBox="0 0 32 32">
<path d="M16 16c2.946 0 5.333-2.388 5.333-5.333s-2.388-5.333-5.333-5.333v0c-2.946 0-5.333 2.388-5.333 5.333s2.388 5.333 5.333 5.333v0zM16 18.667c-3.556 0-10.667 1.778-10.667 5.333v1.333c0 0.729 0.604 1.333 1.333 1.333h18.667c0.729 0 1.333-0.604 1.333-1.333v-1.333c0-3.556-7.111-5.333-10.667-5.333z"></path>
</symbol>
<symbol id="icon-phone-black_3" viewBox="0 0 24 32">
<path d="M19.64 18.493l-2.453-0.28c-0.587-0.080-1.173 0.133-1.587 0.533l-1.773 1.787c-2.752-1.42-4.94-3.608-6.322-6.279l-0.038-0.081 1.787-1.787c0.413-0.413 0.613-0.987 0.547-1.587l-0.267-2.427c-0.117-0.966-0.932-1.707-1.92-1.707-0.005 0-0.009 0-0.014 0h-1.666c-1.093 0-2 0.907-1.933 2 0.537 8.244 7.090 14.797 15.285 15.331l0.049 0.003c1.093 0.067 2-0.84 2-1.933v-1.667c0-0.973-0.72-1.8-1.693-1.907z"></path>
</symbol>
</defs>
</svg>
